# xmcd CD Database Entry
#
# Track frame offsets:
# 150
# 20227
# 39662
# 55502
# 68975
# 85192
# 110057
# 125552
# 142315
# 163567
#
# Disc length: 2472 seconds
#
# Revision: 3
# Processed by: cddbd v1.4PL0 Copyright (c) Steve Scherf et al.
# Submitted via: tcd 2.0b
#
DISCID=9209a60a
DTITLE=Love Songs - Island Classics Vol. 2
DYEAR=1900
DGENRE=
TTITLE0=Little Things You Do
TTITLE1=Hugs and Kisses
TTITLE2=Drifting Away
TTITLE3=Fell In Love
TTITLE4=All I do is Cry at Night
TTITLE5=My Lady
TTITLE6=I'll Be There (Turner's Songs)
TTITLE7=True Love
TTITLE8=Lover's Moon
TTITLE9=I'm So Lucky
EXTD=
EXTT0=Ilona Irvine and Al Oliva
EXTT1=New Generation
EXTT2=Kanaka Pride
EXTT3=Annette
EXTT4=Dita feat. Wade Cambern of Hawaiian Style Band
EXTT5=Westside
EXTT6=Peter Milo
EXTT7=Tanja Dee
EXTT8=Helemano and Players of Instruments
EXTT9=Sistah Sistah
PLAYORDER=
